<?xml version="1.0" encoding="utf-8"?>
<!-- Generator: Adobe Illustrator 24.1.2, SVG Export Plug-In . SVG Version: 6.00 Build 0)  -->
<svg version="1.1" id="Layer_1" xmlns="http://www.w3.org/2000/svg" xmlns:xlink="http://www.w3.org/1999/xlink" x="0px" y="0px"
	 viewBox="0 0 303.2 303.2" style="enable-background:new 0 0 303.2 303.2;" xml:space="preserve">
<style type="text/css">
	.st0{fill:#FEFEFE;}
</style>
<path class="st0" d="M187.1,0c0.7,0.3,1.3,0.7,2,1c3.3,0.1,5.9,1.5,8,4l0,0c0.4,0.9,0.5,1.8,0.3,2.7c-0.5,1.6-1.3,3-1.9,4.5
	c-8.2,14.4-15.5,29.3-23.2,43.9c-7.6,14.5-15.1,29-22.7,43.5c-7.4,14-15,28-22,42.2c-1.5,3-3.7,5.5-5,8.6c-0.8,1.9-1.4,3.7,0,5.5
	c1.1,2.1,2.2,4.2,3.4,6.3c9.5,17.5,19.1,35.1,28.5,52.6c13.9,25.8,28.2,51.3,41.9,77.2c0.5,2.1,2.2,4.1,0.6,6.4
	c-0.8,0.7-1.7,1.2-2.6,1.6c-5.7,2.9-6.2,5.1-10.4-0.6c-4.6-11.1-11.1-21.1-16.6-31.7c-5.2-10-10.6-19.9-16.2-29.7
	c-7.9-14-15.3-28.3-23.1-42.4c-5.1-9.1-10-18.4-14.9-27.6c-1.7-3.2-3.7-6.3-5.6-9.4c-0.8-1.5-2.1-2.9-1.8-4.8
	c1.5-4.6,3.9-8.8,6.1-13c12.1-23.2,24.4-46.4,36.4-69.7c11.4-22.1,23.7-43.7,34.3-66.2c0.6-1.3,1.4-2.4,2.4-3.4
	C185.6,1,186.5,0.7,187.1,0z"/>
</svg>
